MutatorSans_width_93.05_weight_658.60.ufo
<glyph name="comma" format="2">
  <advance width="231"/>
  <unicode hex="002C"/>
  <outline>
    <contour>
      <point x="187" y="0" type="line"/>
      <point x="187" y="242" type="line"/>
      <point x="44" y="242" type="line"/>
      <point x="44" y="0" type="line"/>
      <point x="107" y="-13" type="line"/>
      <point x="98" y="12" type="line"/>
      <point x="76" y="-126" type="line"/>
      <point x="128" y="-128" type="line"/>
    </contour>
  </outline>
</glyph>
<glyph name="period" format="2">
  <advance width="230"/>
  <unicode hex="002E"/>
  <outline>
    <contour>
      <point x="44" y="0" type="line"/>
      <point x="186" y="0" type="line"/>
      <point x="186" y="242" type="line"/>
      <point x="44" y="242" type="line"/>
    </contour>
  </outline>
</glyph>
<glyph name="A" format="2">
  <advance width="681"/>
  <unicode hex="0041"/>
  <outline>
    <contour>
      <point x="3" y="0" type="line"/>
      <point x="192" y="0" type="line"/>
      <point x="320" y="766" type="line"/>
      <point x="153" y="766" type="line"/>
    </contour>
    <contour>
      <point x="110" y="137" type="line"/>
      <point x="535" y="137" type="line"/>
      <point x="535" y="282" type="line"/>
      <point x="110" y="282" type="line"/>
    </contour>
    <contour>
      <point x="419" y="0" type="line"/>
      <point x="667" y="0" type="line"/>
      <point x="515" y="766" type="line"/>
      <point x="283" y="766" type="line"/>
    </contour>
    <contour>
      <point x="219" y="581" type="line"/>
      <point x="422" y="581" type="line"/>
      <point x="422" y="766" type="line"/>
      <point x="219" y="766" type="line"/>
    </contour>
  </outline>
</glyph>
<glyph name="B" format="2">
  <advance width="691"/>
  <unicode hex="0042"/>
  <outline>
    <contour>
      <point x="44" y="0" type="line"/>
      <point x="272" y="0" type="line"/>
      <point x="272" y="768" type="line"/>
      <point x="44" y="768" type="line"/>
    </contour>
    <contour>
      <point x="227" y="321" type="line"/>
      <point x="356" y="321" type="line" smooth="yes"/>
      <point x="410" y="321"/>
      <point x="443" y="299"/>
      <point x="443" y="246" type="curve" smooth="yes"/>
      <point x="443" y="195"/>
      <point x="409" y="172"/>
      <point x="353" y="172" type="curve" smooth="yes"/>
      <point x="227" y="172" type="line"/>
      <point x="227" y="0" type="line"/>
      <point x="391" y="0" type="line" smooth="yes"/>
      <point x="612" y="0"/>
      <point x="667" y="89"/>
      <point x="667" y="215" type="curve" smooth="yes"/>
      <point x="667" y="329"/>
      <point x="612" y="395"/>
      <point x="510" y="410" type="curve"/>
      <point x="507" y="368" type="line"/>
      <point x="588" y="384"/>
      <point x="651" y="443"/>
      <point x="651" y="548" type="curve" smooth="yes"/>
      <point x="651" y="681"/>
      <point x="589" y="768"/>
      <point x="376" y="768" type="curve" smooth="yes"/>
      <point x="227" y="768" type="line"/>
      <point x="227" y="604" type="line"/>
      <point x="345" y="604" type="line" smooth="yes"/>
      <point x="405" y="604"/>
      <point x="433" y="582"/>
      <point x="433" y="533" type="curve" smooth="yes"/>
      <point x="433" y="480"/>
      <point x="401" y="462"/>
      <point x="345" y="462" type="curve" smooth="yes"/>
      <point x="227" y="462" type="line"/>
    </contour>
  </outline>
</glyph>
<glyph name="C" format="2">
  <advance width="771"/>
  <unicode hex="0043"/>
  <outline>
    <contour>
      <point x="526" y="339" type="line"/>
      <point x="518" y="217"/>
      <point x="477" y="176"/>
      <point x="401" y="176" type="curve" smooth="yes"/>
      <point x="385" y="176" type="line" smooth="yes"/>
      <point x="306" y="176"/>
      <point x="266" y="232"/>
      <point x="266" y="386" type="curve" smooth="yes"/>
      <point x="266" y="536"/>
      <point x="307" y="590"/>
      <point x="385" y="590" type="curve" smooth="yes"/>
      <point x="401" y="590" type="line" smooth="yes"/>
      <point x="476" y="590"/>
      <point x="518" y="551"/>
      <point x="526" y="433" type="curve"/>
      <point x="739" y="455" type="line"/>
      <point x="718" y="676"/>
      <point x="595" y="776"/>
      <point x="409" y="776" type="curve" smooth="yes"/>
      <point x="377" y="776" type="line" smooth="yes"/>
      <point x="165" y="776"/>
      <point x="32" y="657"/>
      <point x="32" y="386" type="curve" smooth="yes"/>
      <point x="32" y="112"/>
      <point x="165" y="-10"/>
      <point x="377" y="-10" type="curve" smooth="yes"/>
      <point x="409" y="-10" type="line" smooth="yes"/>
      <point x="595" y="-10"/>
      <point x="719" y="92"/>
      <point x="739" y="317" type="curve"/>
    </contour>
  </outline>
</glyph>
<glyph name="D" format="2">
  <advance width="727"/>
  <unicode hex="0044"/>
  <outline>
    <contour>
      <point x="44" y="0" type="line"/>
      <point x="256" y="0" type="line"/>
      <point x="256" y="766" type="line"/>
      <point x="44" y="766" type="line"/>
    </contour>
    <contour>
      <point x="215" y="586" type="line"/>
      <point x="328" y="586" type="line" smooth="yes"/>
      <point x="413" y="586"/>
      <point x="464" y="536"/>
      <point x="464" y="386" type="curve" smooth="yes"/>
      <point x="464" y="232"/>
      <point x="413" y="180"/>
      <point x="328" y="180" type="curve" smooth="yes"/>
      <point x="210" y="180" type="line"/>
      <point x="210" y="0" type="line"/>
      <point x="336" y="0" type="line" smooth="yes"/>
      <point x="553" y="0"/>
      <point x="697" y="117"/>
      <point x="697" y="386" type="curve" smooth="yes"/>
      <point x="697" y="652"/>
      <point x="553" y="766"/>
      <point x="336" y="766" type="curve" smooth="yes"/>
      <point x="215" y="766" type="line"/>
    </contour>
  </outline>
</glyph>
<glyph name="E" format="2">
  <advance width="643"/>
  <unicode hex="0045"/>
  <anchor x="355" y="811" name="top"/>
  <outline>
    <contour>
      <point x="100" y="0" type="line"/>
      <point x="316" y="0" type="line"/>
      <point x="316" y="767" type="line"/>
      <point x="100" y="767" type="line"/>
    </contour>
    <contour>
      <point x="167" y="574" type="line"/>
      <point x="595" y="574" type="line"/>
      <point x="595" y="767" type="line"/>
      <point x="167" y="767" type="line"/>
    </contour>
    <contour>
      <point x="167" y="0" type="line"/>
      <point x="595" y="0" type="line"/>
      <point x="595" y="194" type="line"/>
      <point x="167" y="194" type="line"/>
    </contour>
    <contour>
      <point x="167" y="299" type="line"/>
      <point x="561" y="299" type="line"/>
      <point x="561" y="473" type="line"/>
      <point x="167" y="473" type="line"/>
    </contour>
  </outline>
</glyph>
<glyph name="F" format="2">
  <advance width="645"/>
  <unicode hex="0046"/>
  <outline>
    <contour>
      <point x="100" y="0" type="line"/>
      <point x="314" y="0" type="line"/>
      <point x="314" y="768" type="line"/>
      <point x="100" y="768" type="line"/>
    </contour>
    <contour>
      <point x="166" y="572" type="line"/>
      <point x="598" y="572" type="line"/>
      <point x="598" y="768" type="line"/>
      <point x="166" y="768" type="line"/>
    </contour>
    <contour>
      <point x="166" y="255" type="line"/>
      <point x="562" y="255" type="line"/>
      <point x="562" y="430" type="line"/>
      <point x="166" y="430" type="line"/>
    </contour>
  </outline>
</glyph>
<glyph name="G" format="2">
  <advance width="787"/>
  <unicode hex="0047"/>
  <outline>
    <contour>
      <point x="348" y="278" type="line"/>
      <point x="555" y="278" type="line"/>
      <point x="555" y="216" type="line"/>
      <point x="633" y="0" type="line"/>
      <point x="744" y="0" type="line"/>
      <point x="744" y="432" type="line"/>
      <point x="348" y="432" type="line"/>
    </contour>
    <contour>
      <point x="541" y="347" type="line"/>
      <point x="534" y="220"/>
      <point x="489" y="180"/>
      <point x="405" y="180" type="curve" smooth="yes"/>
      <point x="388" y="180" type="line" smooth="yes"/>
      <point x="309" y="180"/>
      <point x="269" y="235"/>
      <point x="269" y="386" type="curve" smooth="yes"/>
      <point x="269" y="534"/>
      <point x="315" y="588"/>
      <point x="400" y="588" type="curve" smooth="yes"/>
      <point x="417" y="588" type="line" smooth="yes"/>
      <point x="487" y="587"/>
      <point x="530" y="548"/>
      <point x="541" y="460" type="curve"/>
      <point x="739" y="484" type="line"/>
      <point x="734" y="671"/>
      <point x="600" y="777"/>
      <point x="416" y="777" type="curve" smooth="yes"/>
      <point x="382" y="777" type="line" smooth="yes"/>
      <point x="168" y="777"/>
      <point x="32" y="657"/>
      <point x="32" y="386" type="curve" smooth="yes"/>
      <point x="32" y="113"/>
      <point x="166" y="-10"/>
      <point x="379" y="-10" type="curve" smooth="yes"/>
      <point x="402" y="-10" type="line" smooth="yes"/>
      <point x="587" y="-10"/>
      <point x="705" y="94"/>
      <point x="721" y="325" type="curve"/>
    </contour>
  </outline>
</glyph>
<glyph name="H" format="2">
  <advance width="766"/>
  <unicode hex="0048"/>
  <outline>
    <contour>
      <point x="100" y="0" type="line"/>
      <point x="331" y="0" type="line"/>
      <point x="331" y="766" type="line"/>
      <point x="100" y="766" type="line"/>
    </contour>
    <contour>
      <point x="183" y="286" type="line"/>
      <point x="639" y="286" type="line"/>
      <point x="639" y="469" type="line"/>
      <point x="183" y="469" type="line"/>
    </contour>
    <contour>
      <point x="491" y="0" type="line"/>
      <point x="722" y="0" type="line"/>
      <point x="722" y="766" type="line"/>
      <point x="491" y="766" type="line"/>
    </contour>
  </outline>
</glyph>
<glyph name="I" format="2">
  <advance width="375"/>
  <unicode hex="0049"/>
  <outline>
    <contour>
      <point x="100" y="0" type="line"/>
      <point x="331" y="0" type="line"/>
      <point x="331" y="766" type="line"/>
      <point x="100" y="766" type="line"/>
    </contour>
  </outline>
</glyph>
<glyph name="J" format="2">
  <advance width="693"/>
  <unicode hex="004A"/>
  <outline>
    <contour>
      <point x="343" y="-10" type="curve" smooth="yes"/>
      <point x="552" y="-10"/>
      <point x="647" y="85"/>
      <point x="647" y="297" type="curve" smooth="yes"/>
      <point x="647" y="766" type="line"/>
      <point x="416" y="766" type="line"/>
      <point x="416" y="266" type="line" smooth="yes"/>
      <point x="416" y="200"/>
      <point x="391" y="178"/>
      <point x="343" y="178" type="curve" smooth="yes"/>
      <point x="297" y="178"/>
      <point x="270" y="199"/>
      <point x="270" y="264" type="curve" smooth="yes"/>
      <point x="270" y="381" type="line"/>
      <point x="41" y="381" type="line"/>
      <point x="41" y="293" type="line" smooth="yes"/>
      <point x="41" y="84"/>
      <point x="134" y="-10"/>
    </contour>
  </outline>
</glyph>
<glyph name="K" format="2">
  <advance width="734"/>
  <unicode hex="004B"/>
  <outline>
    <contour>
      <point x="44" y="0" type="line"/>
      <point x="275" y="0" type="line"/>
      <point x="275" y="766" type="line"/>
      <point x="44" y="766" type="line"/>
    </contour>
    <contour>
      <point x="241" y="318" type="line"/>
      <point x="298" y="318" type="line"/>
      <point x="459" y="0" type="line"/>
      <point x="718" y="0" type="line"/>
      <point x="494" y="476" type="line"/>
      <point x="310" y="423" type="line"/>
      <point x="241" y="423" type="line"/>
    </contour>
    <contour>
      <point x="292" y="400" type="line"/>
      <point x="462" y="322" type="line"/>
      <point x="713" y="766" type="line"/>
      <point x="469" y="766" type="line"/>
    </contour>
  </outline>
</glyph>
<glyph name="L" format="2">
  <advance width="539"/>
  <unicode hex="004C"/>
  <outline>
    <contour>
      <point x="44" y="0" type="line"/>
      <point x="275" y="0" type="line"/>
      <point x="275" y="766" type="line"/>
      <point x="44" y="766" type="line"/>
    </contour>
    <contour>
      <point x="116" y="0" type="line"/>
      <point x="516" y="0" type="line"/>
      <point x="516" y="179" type="line"/>
      <point x="116" y="179" type="line"/>
    </contour>
  </outline>
</glyph>
<glyph name="M" format="2">
  <advance width="781"/>
  <unicode hex="004D"/>
  <outline>
    <contour>
      <point x="44" y="0" type="line"/>
      <point x="227" y="0" type="line"/>
      <point x="227" y="766" type="line"/>
      <point x="44" y="766" type="line"/>
    </contour>
    <contour>
      <point x="737" y="0" type="line"/>
      <point x="737" y="766" type="line"/>
      <point x="555" y="766" type="line"/>
      <point x="555" y="0" type="line"/>
    </contour>
    <contour>
      <point x="651" y="506" type="line"/>
      <point x="555" y="766" type="line"/>
      <point x="379" y="477" type="line"/>
      <point x="404" y="477" type="line"/>
      <point x="227" y="766" type="line"/>
      <point x="131" y="504" type="line"/>
      <point x="357" y="179" type="line"/>
      <point x="424" y="179" type="line"/>
    </contour>
  </outline>
</glyph>
<glyph name="N" format="2">
  <advance width="708"/>
  <unicode hex="004E"/>
  <outline>
    <contour>
      <point x="44" y="0" type="line"/>
      <point x="225" y="0" type="line"/>
      <point x="225" y="766" type="line"/>
      <point x="44" y="766" type="line"/>
    </contour>
    <contour>
      <point x="104" y="560" type="line"/>
      <point x="483" y="0" type="line"/>
      <point x="604" y="206" type="line"/>
      <point x="225" y="766" type="line"/>
    </contour>
    <contour>
      <point x="483" y="0" type="line"/>
      <point x="664" y="0" type="line"/>
      <point x="664" y="766" type="line"/>
      <point x="483" y="766" type="line"/>
    </contour>
  </outline>
</glyph>
<glyph name="O" format="2">
  <advance width="786"/>
  <unicode hex="004F"/>
  <outline>
    <contour>
      <point x="377" y="-10" type="curve" smooth="yes"/>
      <point x="409" y="-10" type="line" smooth="yes"/>
      <point x="621" y="-10"/>
      <point x="754" y="112"/>
      <point x="754" y="386" type="curve" smooth="yes"/>
      <point x="754" y="657"/>
      <point x="621" y="776"/>
      <point x="409" y="776" type="curve" smooth="yes"/>
      <point x="377" y="776" type="line" smooth="yes"/>
      <point x="165" y="776"/>
      <point x="32" y="657"/>
      <point x="32" y="386" type="curve" smooth="yes"/>
      <point x="32" y="112"/>
      <point x="165" y="-10"/>
    </contour>
    <contour>
      <point x="385" y="176" type="line" smooth="yes"/>
      <point x="306" y="176"/>
      <point x="266" y="232"/>
      <point x="266" y="386" type="curve" smooth="yes"/>
      <point x="266" y="536"/>
      <point x="306" y="590"/>
      <point x="385" y="590" type="curve" smooth="yes"/>
      <point x="401" y="590" type="line" smooth="yes"/>
      <point x="480" y="590"/>
      <point x="521" y="536"/>
      <point x="521" y="386" type="curve" smooth="yes"/>
      <point x="521" y="232"/>
      <point x="480" y="176"/>
      <point x="401" y="176" type="curve" smooth="yes"/>
    </contour>
  </outline>
</glyph>
<glyph name="P" format="2">
  <advance width="671"/>
  <unicode hex="0050"/>
  <outline>
    <contour>
      <point x="44" y="0" type="line"/>
      <point x="275" y="0" type="line"/>
      <point x="275" y="766" type="line"/>
      <point x="44" y="766" type="line"/>
    </contour>
    <contour>
      <point x="215" y="584" type="line"/>
      <point x="332" y="584" type="line" smooth="yes"/>
      <point x="400" y="584"/>
      <point x="429" y="544"/>
      <point x="429" y="466" type="curve" smooth="yes"/>
      <point x="429" y="385"/>
      <point x="400" y="347"/>
      <point x="332" y="347" type="curve" smooth="yes"/>
      <point x="215" y="347" type="line"/>
      <point x="215" y="165" type="line"/>
      <point x="341" y="165" type="line" smooth="yes"/>
      <point x="564" y="165"/>
      <point x="641" y="275"/>
      <point x="641" y="466" type="curve" smooth="yes"/>
      <point x="641" y="657"/>
      <point x="564" y="766"/>
      <point x="341" y="766" type="curve" smooth="yes"/>
      <point x="215" y="766" type="line"/>
    </contour>
  </outline>
</glyph>
<glyph name="Q" format="2">
  <advance width="786"/>
  <unicode hex="0051"/>
  <outline>
    <contour>
      <point x="404" y="-130" type="line"/>
      <point x="630" y="-130" type="line"/>
      <point x="522" y="116" type="line"/>
      <point x="316" y="110" type="line"/>
    </contour>
    <component base="O"/>
  </outline>
</glyph>
<glyph name="R" format="2">
  <advance width="686"/>
  <unicode hex="0052"/>
  <outline>
    <contour>
      <point x="418" y="0" type="line"/>
      <point x="652" y="0" type="line"/>
      <point x="596" y="175" type="line" smooth="yes"/>
      <point x="575" y="229"/>
      <point x="542" y="261"/>
      <point x="488" y="261" type="curve"/>
      <point x="350" y="261" type="line"/>
    </contour>
    <contour>
      <point x="44" y="0" type="line"/>
      <point x="275" y="0" type="line"/>
      <point x="275" y="766" type="line"/>
      <point x="44" y="766" type="line"/>
    </contour>
    <contour>
      <point x="218" y="584" type="line"/>
      <point x="341" y="584" type="line" smooth="yes"/>
      <point x="409" y="584"/>
      <point x="438" y="544"/>
      <point x="438" y="466" type="curve" smooth="yes"/>
      <point x="438" y="384"/>
      <point x="409" y="347"/>
      <point x="341" y="347" type="curve" smooth="yes"/>
      <point x="218" y="347" type="line"/>
      <point x="218" y="203" type="line"/>
      <point x="355" y="203" type="line" smooth="yes"/>
      <point x="567" y="203"/>
      <point x="650" y="306"/>
      <point x="650" y="484" type="curve" smooth="yes"/>
      <point x="650" y="663"/>
      <point x="561" y="766"/>
      <point x="349" y="766" type="curve" smooth="yes"/>
      <point x="218" y="766" type="line"/>
    </contour>
  </outline>
</glyph>
<glyph name="S" format="2">
  <advance width="656"/>
  <unicode hex="0053"/>
  <outline>
    <contour>
      <point x="626" y="223" type="curve" smooth="yes"/>
      <point x="625" y="392"/>
      <point x="533" y="449"/>
      <point x="389" y="476" type="curve" smooth="yes"/>
      <point x="324" y="490" type="line" smooth="yes"/>
      <point x="245" y="509"/>
      <point x="231" y="524"/>
      <point x="231" y="549" type="curve" smooth="yes"/>
      <point x="231" y="584"/>
      <point x="256" y="601"/>
      <point x="324" y="601" type="curve" smooth="yes"/>
      <point x="373" y="601" type="line" smooth="yes"/>
      <point x="453" y="601"/>
      <point x="527" y="591"/>
      <point x="586" y="576" type="curve"/>
      <point x="616" y="745" type="line"/>
      <point x="556" y="761"/>
      <point x="463" y="778"/>
      <point x="397" y="778" type="curve" smooth="yes"/>
      <point x="359" y="778" type="line" smooth="yes"/>
      <point x="142" y="778"/>
      <point x="39" y="687"/>
      <point x="39" y="533" type="curve" smooth="yes"/>
      <point x="39" y="380"/>
      <point x="141" y="320"/>
      <point x="275" y="292" type="curve" smooth="yes"/>
      <point x="339" y="277" type="line" smooth="yes"/>
      <point x="415" y="255"/>
      <point x="433" y="245"/>
      <point x="433" y="214" type="curve" smooth="yes"/>
      <point x="433" y="188"/>
      <point x="406" y="167"/>
      <point x="337" y="167" type="curve" smooth="yes"/>
      <point x="290" y="167" type="line" smooth="yes"/>
      <point x="200" y="167"/>
      <point x="119" y="177"/>
      <point x="53" y="195" type="curve"/>
      <point x="23" y="24" type="line"/>
      <point x="90" y="6"/>
      <point x="193" y="-10"/>
      <point x="266" y="-10" type="curve" smooth="yes"/>
      <point x="306" y="-10" type="line" smooth="yes"/>
      <point x="552" y="-10"/>
      <point x="626" y="93"/>
    </contour>
  </outline>
</glyph>
<glyph name="T" format="2">
  <advance width="620"/>
  <unicode hex="0054"/>
  <outline>
    <contour>
      <point x="195" y="0" type="line"/>
      <point x="425" y="0" type="line"/>
      <point x="425" y="766" type="line"/>
      <point x="195" y="766" type="line"/>
    </contour>
    <contour>
      <point x="24" y="585" type="line"/>
      <point x="596" y="585" type="line"/>
      <point x="596" y="766" type="line"/>
      <point x="24" y="766" type="line"/>
    </contour>
  </outline>
</glyph>
<glyph name="U" format="2">
  <advance width="714"/>
  <unicode hex="0055"/>
  <outline>
    <contour>
      <point x="356" y="-10" type="curve" smooth="yes"/>
      <point x="570" y="-10"/>
      <point x="668" y="86"/>
      <point x="668" y="299" type="curve" smooth="yes"/>
      <point x="668" y="766" type="line"/>
      <point x="437" y="766" type="line"/>
      <point x="437" y="269" type="line" smooth="yes"/>
      <point x="437" y="201"/>
      <point x="408" y="178"/>
      <point x="356" y="178" type="curve" smooth="yes"/>
      <point x="306" y="178"/>
      <point x="277" y="201"/>
      <point x="277" y="269" type="curve" smooth="yes"/>
      <point x="277" y="766" type="line"/>
      <point x="46" y="766" type="line"/>
      <point x="46" y="299" type="line" smooth="yes"/>
      <point x="46" y="86"/>
      <point x="142" y="-10"/>
    </contour>
  </outline>
</glyph>
<glyph name="V" format="2">
  <advance width="684"/>
  <unicode hex="0056"/>
  <outline>
    <contour>
      <point x="669" y="766" type="line"/>
      <point x="485" y="766" type="line"/>
      <point x="358" y="0" type="line"/>
      <point x="520" y="0" type="line"/>
    </contour>
    <contour>
      <point x="262" y="766" type="line"/>
      <point x="15" y="766" type="line"/>
      <point x="165" y="0" type="line"/>
      <point x="397" y="0" type="line"/>
    </contour>
    <contour>
      <point x="467" y="184" type="line"/>
      <point x="257" y="184" type="line"/>
      <point x="257" y="0" type="line"/>
      <point x="467" y="0" type="line"/>
    </contour>
  </outline>
</glyph>
<glyph name="W" format="2">
  <advance width="818"/>
  <unicode hex="0057"/>
  <outline>
    <contour>
      <point x="803" y="766" type="line"/>
      <point x="611" y="766" type="line"/>
      <point x="541" y="199" type="line"/>
      <point x="570" y="199" type="line"/>
      <point x="497" y="766" type="line"/>
      <point x="345" y="766" type="line"/>
      <point x="275" y="199" type="line"/>
      <point x="304" y="199" type="line"/>
      <point x="229" y="766" type="line"/>
      <point x="15" y="766" type="line"/>
      <point x="129" y="0" type="line"/>
      <point x="343" y="0" type="line"/>
      <point x="412" y="492" type="line"/>
      <point x="379" y="492" type="line"/>
      <point x="458" y="0" type="line"/>
      <point x="692" y="0" type="line"/>
    </contour>
  </outline>
</glyph>
<glyph name="X" format="2">
  <advance width="683"/>
  <unicode hex="0058"/>
  <outline>
    <contour>
      <point x="396" y="0" type="line"/>
      <point x="669" y="0" type="line"/>
      <point x="431" y="437" type="line"/>
      <point x="290" y="766" type="line"/>
      <point x="17" y="766" type="line"/>
      <point x="249" y="347" type="line"/>
    </contour>
    <contour>
      <point x="15" y="0" type="line"/>
      <point x="194" y="0" type="line"/>
      <point x="314" y="320" type="line"/>
      <point x="465" y="341" type="line"/>
      <point x="665" y="766" type="line"/>
      <point x="486" y="766" type="line"/>
      <point x="365" y="477" type="line"/>
      <point x="216" y="445" type="line"/>
    </contour>
  </outline>
</glyph>
<glyph name="Y" format="2">
  <advance width="678"/>
  <unicode hex="0059"/>
  <outline>
    <contour>
      <point x="663" y="766" type="line"/>
      <point x="490" y="766" type="line"/>
      <point x="309" y="204" type="line"/>
      <point x="454" y="203" type="line"/>
    </contour>
    <contour>
      <point x="265" y="766" type="line"/>
      <point x="14" y="766" type="line"/>
      <point x="224" y="203" type="line"/>
      <point x="433" y="204" type="line"/>
    </contour>
    <contour>
      <point x="454" y="270" type="line"/>
      <point x="224" y="270" type="line"/>
      <point x="224" y="0" type="line"/>
      <point x="454" y="0" type="line"/>
    </contour>
  </outline>
</glyph>
<glyph name="Z" format="2">
  <advance width="635"/>
  <unicode hex="005A"/>
  <outline>
    <contour>
      <point x="44" y="179" type="line"/>
      <point x="297" y="157" type="line"/>
      <point x="591" y="587" type="line"/>
      <point x="338" y="609" type="line"/>
    </contour>
    <contour>
      <point x="44" y="587" type="line"/>
      <point x="591" y="587" type="line"/>
      <point x="591" y="766" type="line"/>
      <point x="44" y="766" type="line"/>
    </contour>
    <contour>
      <point x="44" y="0" type="line"/>
      <point x="591" y="0" type="line"/>
      <point x="591" y="179" type="line"/>
      <point x="44" y="179" type="line"/>
    </contour>
  </outline>
</glyph>
<glyph name="acute" format="2">
  <advance width="294"/>
  <unicode hex="00B4"/>
  <outline>
    <contour>
      <point x="30" y="796" type="line"/>
      <point x="265" y="799" type="line"/>
      <point x="265" y="889" type="line"/>
      <point x="30" y="865" type="line"/>
    </contour>
  </outline>
</glyph>
<glyph name="arrowleft" format="2">
  <advance width="636"/>
  <unicode hex="2190"/>
  <outline>
    <contour>
      <point x="260" y="545" type="line"/>
      <point x="260" y="213" type="line"/>
      <point x="626" y="207" type="line"/>
      <point x="626" y="551" type="line"/>
    </contour>
    <contour>
      <point x="350" y="670" type="line"/>
      <point x="5" y="384" type="line"/>
      <point x="349" y="101" type="line"/>
    </contour>
  </outline>
</glyph>
<glyph name="arrowup" format="2">
  <advance width="651"/>
  <unicode hex="2191"/>
  <outline>
    <contour>
      <point x="462" y="461" type="line"/>
      <point x="187" y="461" type="line"/>
      <point x="181" y="99" type="line"/>
      <point x="469" y="99" type="line"/>
    </contour>
    <contour>
      <point x="610" y="325" type="line"/>
      <point x="324" y="671" type="line"/>
      <point x="41" y="326" type="line"/>
    </contour>
  </outline>
</glyph>
<glyph name="arrowright" format="2">
  <advance width="598"/>
  <unicode hex="2192"/>
  <outline>
    <contour>
      <point x="338" y="227" type="line"/>
      <point x="338" y="558" type="line"/>
      <point x="10" y="564" type="line"/>
      <point x="10" y="220" type="line"/>
    </contour>
    <contour>
      <point x="247" y="101" type="line"/>
      <point x="593" y="388" type="line"/>
      <point x="248" y="671" type="line"/>
    </contour>
  </outline>
</glyph>
<glyph name="arrowdown" format="2">
  <advance width="651"/>
  <unicode hex="2193"/>
  <outline>
    <contour>
      <point x="189" y="282" type="line"/>
      <point x="464" y="282" type="line"/>
      <point x="470" y="644" type="line"/>
      <point x="182" y="644" type="line"/>
    </contour>
    <contour>
      <point x="41" y="418" type="line"/>
      <point x="327" y="72" type="line"/>
      <point x="610" y="417" type="line"/>
    </contour>
  </outline>
</glyph>
<glyph name="dot" format="2">
  <advance width="252"/>
  <unicode hex="27D1"/>
  <outline>
    <contour>
      <point x="57" y="802" type="line"/>
      <point x="195" y="802" type="line"/>
      <point x="195" y="905" type="line"/>
      <point x="57" y="905" type="line"/>
    </contour>
  </outline>
</glyph>
<glyph name="IJ" format="2">
  <advance width="714"/>
  <outline>
    <contour>
      <point x="277" y="366" type="line"/>
      <point x="277" y="766" type="line"/>
      <point x="46" y="766" type="line"/>
      <point x="46" y="366" type="line"/>
    </contour>
    <contour>
      <point x="356" y="-10" type="curve" smooth="yes"/>
      <point x="570" y="-10"/>
      <point x="668" y="86"/>
      <point x="668" y="299" type="curve" smooth="yes"/>
      <point x="668" y="766" type="line"/>
      <point x="437" y="766" type="line"/>
      <point x="437" y="269" type="line" smooth="yes"/>
      <point x="437" y="201"/>
      <point x="408" y="178"/>
      <point x="356" y="178" type="curve" smooth="yes"/>
      <point x="306" y="178"/>
      <point x="277" y="199"/>
      <point x="277" y="264" type="curve" smooth="yes"/>
      <point x="277" y="309" type="line"/>
      <point x="46" y="309" type="line"/>
      <point x="46" y="270" type="line" smooth="yes"/>
      <point x="46" y="79"/>
      <point x="142" y="-10"/>
    </contour>
  </outline>
</glyph>
<glyph name="J.narrow" format="2">
  <advance width="594"/>
  <outline>
    <contour>
      <point x="196" y="-10" type="curve" smooth="yes"/>
      <point x="416" y="-10"/>
      <point x="550" y="89"/>
      <point x="550" y="311" type="curve" smooth="yes"/>
      <point x="550" y="766" type="line"/>
      <point x="318" y="766" type="line"/>
      <point x="318" y="353" type="line" smooth="yes"/>
      <point x="318" y="233"/>
      <point x="267" y="190"/>
      <point x="174" y="190" type="curve" smooth="yes"/>
      <point x="143" y="190"/>
      <point x="113" y="193"/>
      <point x="81" y="201" type="curve"/>
      <point x="44" y="11" type="line"/>
      <point x="88" y="-3"/>
      <point x="139" y="-10"/>
    </contour>
  </outline>
</glyph>
<glyph name="S.closed" format="2">
  <advance width="686"/>
  <outline>
    <contour>
      <point x="655" y="222" type="curve" smooth="yes"/>
      <point x="655" y="382"/>
      <point x="564" y="438"/>
      <point x="406" y="462" type="curve" smooth="yes"/>
      <point x="322" y="477" type="line" smooth="yes"/>
      <point x="243" y="493"/>
      <point x="228" y="510"/>
      <point x="228" y="539" type="curve" smooth="yes"/>
      <point x="228" y="568"/>
      <point x="251" y="589"/>
      <point x="322" y="589" type="curve" smooth="yes"/>
      <point x="358" y="589" type="line" smooth="yes"/>
      <point x="429" y="589"/>
      <point x="445" y="560"/>
      <point x="446" y="494" type="curve"/>
      <point x="639" y="494" type="line"/>
      <point x="639" y="692"/>
      <point x="563" y="777"/>
      <point x="361" y="777" type="curve" smooth="yes"/>
      <point x="338" y="777" type="line" smooth="yes"/>
      <point x="135" y="777"/>
      <point x="34" y="686"/>
      <point x="34" y="533" type="curve" smooth="yes"/>
      <point x="34" y="384"/>
      <point x="135" y="321"/>
      <point x="282" y="297" type="curve" smooth="yes"/>
      <point x="365" y="281" type="line" smooth="yes"/>
      <point x="441" y="262"/>
      <point x="459" y="249"/>
      <point x="459" y="219" type="curve" smooth="yes"/>
      <point x="459" y="191"/>
      <point x="433" y="171"/>
      <point x="376" y="171" type="curve" smooth="yes"/>
      <point x="331" y="171" type="line" smooth="yes"/>
      <point x="254" y="171"/>
      <point x="235" y="207"/>
      <point x="235" y="266" type="curve"/>
      <point x="34" y="266" type="line"/>
      <point x="34" y="60"/>
      <point x="135" y="-10"/>
      <point x="316" y="-10" type="curve" smooth="yes"/>
      <point x="348" y="-10" type="line" smooth="yes"/>
      <point x="565" y="-10"/>
      <point x="655" y="92"/>
    </contour>
  </outline>
</glyph>
